<?xml version="1.0" standalone="no"?><!DOCTYPE svg PUBLIC "-//W3C//DTD SVG 1.1//EN" "http://www.w3.org/Graphics/SVG/1.1/DTD/svg11.dtd"><svg t="1556603767984" class="icon" style="" viewBox="0 0 1024 1024" version="1.1" xmlns="http://www.w3.org/2000/svg" p-id="1846" xmlns:xlink="http://www.w3.org/1999/xlink" width="32" height="32"><defs><style type="text/css"></style></defs><path d="M445.649455 634.065455l270.42909-270.405819 59.229091 59.252364-329.122909 329.122909-197.492363-197.492364 58.717091-58.693818 138.24 138.24zM512 139.636364C306.688 139.636364 139.636364 306.734545 139.636364 512c0 205.335273 167.051636 372.363636 372.363636 372.363636 205.335273 0 372.363636-167.028364 372.363636-372.363636 0-205.312-167.028364-372.363636-372.363636-372.363636z m0 837.864727C255.348364 977.501091 46.545455 768.674909 46.545455 512 46.545455 255.301818 255.348364 46.545455 512 46.545455s465.454545 208.826182 465.454545 465.454545c0 256.651636-208.756364 465.501091-465.454545 465.501091z" fill="#009688" p-id="1847"></path></svg>